{"title":"The Bounty Hunter (PSP + Ipod touch + Zune) NUKED","uid":5636227,"size":440994113,"categoryP":"video","categoryS":"handheld","magnet":"?xt=urn:btih:2edc997d44d2a2ab1a0a53faf85d3e49ba726807&amp;dn=The+Bounty+Hunter+%28PSP+%2B+Ipod+touch+%2B+Zune%29+NUKED&amp;tr=udp%3A%2F%2Ftracker.openbittorrent.com%3A80&amp;tr=udp%3A%2F%2Fopen.demonii.com%3A1337&amp;tr=udp%3A%2F%2Ftracker.coppersurfer.tk%3A6969&amp;tr=udp%3A%2F%2Fexodus.desync.com%3A6969","seeders":0,"leechers":1,"uploader":"on.off.on","files":-1,"time":1276902263,"description":"NUKED NUKED NUKED NUKED \n\nThe Bounty Hunter\n\nsource:\n\nThe.Bounty.Hunter.DVDRIP-ARROW &lt;a href=&quot;\nhttp://www.imdb.com/title/tt1038919/&quot; rel=&quot;nofollow&quot; target=&quot;_NEW&quot;&gt;\nhttp://www.imdb.com/title/tt1038919/&lt;/a&gt;\n\nID                               : 1\nFormat                           : AVC\nFormat/Info                      : Advanced Video Codec\nFormat profile                   : &lt;a class=&quot;__cf_email__&quot; href=&quot;/cdn-cgi/l/email-protection&quot; data-cfemail=&quot;01436072646d686f64414d332f31&quot;&gt;[email&amp;#160;protected]&lt;/a&gt;&lt;script cf-hash='f9e31' type=&quot;text/javascript&quot;&gt;\n/* &lt;![CDATA[ */!function(){try{var t=&quot;currentScript&quot;in document?document.currentScript:function(){for(var t=document.getElementsByTagName(&quot;script&quot;),e=t.length;e--;)if(t[e].getAttribute(&quot;cf-hash&quot;))return t[e]}();if(t&amp;&amp;t.previousSibling){var e,r,n,i,c=t.previousSibling,a=c.getAttribute(&quot;data-cfemail&quot;);if(a){for(e=&quot;&quot;,r=parseInt(a.substr(0,2),16),n=2;a.length-n;n+=2)i=parseInt(a.substr(n,2),16)^r,e+=String.fromCharCode(i);e=document.createTextNode(e),c.parentNode.replaceChild(e,c)}}}catch(u){}}();/* ]]&gt; */&lt;/script&gt;\nFormat settings, CABAC           : No\nFormat settings, ReFrames        : 3 frames\nCodec ID                         : avc1\nCodec ID/Info                    : Advanced Video Coding\nDuration                         : 1h 50mn\nBit rate mode                    : Variable\nBit rate                         : 400 Kbps\nWidth                            : 480 pixels\nHeight                           : 208 pixels\nDisplay aspect ratio             : 2.35:1\nFrame rate mode                  : Variable\nFrame rate                       : 23.976 fps\nMinimum frame rate               : 23.974 fps\nMaximum frame rate               : 23.981 fps\nColor space                      : YUV\nChroma subsampling               : 4:2:0\nBit depth                        : 8 bits\nScan type                        : Progressive\nBits/(Pixel*Frame)               : 0.167\nStream size                      : 316 MiB (75%)\nWriting library                  : x264 core 79\n\nID                               : 2\nFormat                           : AAC\nFormat/Info                      : Advanced Audio Codec\nFormat version                   : Version 4\nFormat profile                   : LC\nFormat settings, SBR             : No\nCodec ID                         : 40\nDuration                         : 1h 50mn\nBit rate mode                    : Variable\nBit rate                         : 128 Kbps\nMaximum bit rate                 : 232 Kbps\nChannel(s)                       : 2 channels\nChannel positions                : Front: L R\nSampling rate                    : 48.0 KHz\nStream size                      : 101 MiB (24%)\n &lt;a href=&quot;\nhttp://img651.imageshack.us/img651/3966/vlcsnap00001c.png&quot; rel=&quot;nofollow&quot; target=&quot;_NEW&quot;&gt;\nhttp://img651.imageshack.us/img651/3966/vlcsnap00001c.png&lt;/a&gt; &lt;a href=&quot;\nhttp://img684.imageshack.us/img684/6605/vlcsnap00002oz.png&quot; rel=&quot;nofollow&quot; target=&quot;_NEW&quot;&gt;\nhttp://img684.imageshack.us/img684/6605/vlcsnap00002oz.png&lt;/a&gt; &lt;a href=&quot;\nhttp://img64.imageshack.us/img64/5499/vlcsnap00003ed.png&quot; rel=&quot;nofollow&quot; target=&quot;_NEW&quot;&gt;\nhttp://img64.imageshack.us/img64/5499/vlcsnap00003ed.png&lt;/a&gt; &lt;a href=&quot;\nhttp://img692.imageshack.us/img692/7927/vlcsnap00004pz.png&quot; rel=&quot;nofollow&quot; target=&quot;_NEW&quot;&gt;\nhttp://img692.imageshack.us/img692/7927/vlcsnap00004pz.png&lt;/a&gt; &lt;a href=&quot;\nhttp://img39.imageshack.us/img39/1071/vlcsnap00005uk.png&quot; rel=&quot;nofollow&quot; target=&quot;_NEW&quot;&gt;\nhttp://img39.imageshack.us/img39/1071/vlcsnap00005uk.png&lt;/a&gt; &lt;a href=&quot;\nhttp://img823.imageshack.us/img823/3199/vlcsnap00006f.png&quot; rel=&quot;nofollow&quot; target=&quot;_NEW&quot;&gt;\nhttp://img823.imageshack.us/img823/3199/vlcsnap00006f.png&lt;/a&gt; &lt;a href=&quot;\nhttp://img202.imageshack.us/img202/8580/vlcsnap00007j.png&quot; rel=&quot;nofollow&quot; target=&quot;_NEW&quot;&gt;\nhttp://img202.imageshack.us/img202/8580/vlcsnap00007j.png&lt;/a&gt; &lt;a href=&quot;\nhttp://img96.imageshack.us/img96/2072/vlcsnap00008b.png&quot; rel=&quot;nofollow&quot; target=&quot;_NEW&quot;&gt;\nhttp://img96.imageshack.us/img96/2072/vlcsnap00008b.png&lt;/a&gt;\n\n\nPLEASE LET THE TORRENT SEED AND SHARE IT WITH ALL YOU KNOW!\n\nLet me know what I can do to be your trusted source of Handheld videos.\n\n\n*****sound glitch in the middle of the movie*****\n******* SORRY FOR THAT WONT HAPPEN AGAIN ********\n\n\n-OOO (on.off.on)\n","torrent":{"xt":"urn:btih:2edc997d44d2a2ab1a0a53faf85d3e49ba726807","amp;dn":"The+Bounty+Hunter+%28PSP+%2B+Ipod+touch+%2B+Zune%29+NUKED","amp;tr":["udp%3A%2F%2Ftracker.openbittorrent.com%3A80","udp%3A%2F%2Fopen.demonii.com%3A1337","udp%3A%2F%2Ftracker.coppersurfer.tk%3A6969","udp%3A%2F%2Fexodus.desync.com%3A6969"],"infoHash":"2edc997d44d2a2ab1a0a53faf85d3e49ba726807","infoHashBuffer":{"type":"Buffer","data":[46,220,153,125,68,210,162,171,26,10,83,250,248,93,62,73,186,114,104,7]},"announce":[],"urlList":[]}}